<svg xmlns="http://www.w3.org/2000/svg" viewBox="0 0 661.17 108.47"><defs><style>.cls-1{fill:#009fd7;}.cls-1,.cls-2,.cls-3,.cls-4{fill-rule:evenodd;}.cls-2{fill:#00adee;}.cls-3{fill:#21b9ec;}.cls-4{fill:#44c7f4;}</style></defs><title>Recurso 4</title><g id="Capa_2" data-name="Capa 2"><g id="OBJECTS"><path class="cls-1" d="M661.17,79V9.78c-8.45-5-39.84-20.9-72,3.16-20.59,15.4-49.77-14.55-76-3.09-8.57,3.75-40.43,21.73-53.6,15.46-77.9-37.06-71.83,12.21-110.43-7.68-52.69-27.16-57.59,28.77-127.39-4C193.94.59,164.93,22,137,22.93,95.48,24.28,86.29-6.3,57,10.35,46.23,16.47,21.89,20.61,8.92,12A34.91,34.91,0,0,0,0,7.91V79Z"/><path class="cls-2" d="M0,102.49V31.16c9.44-5.7,15.32-5.37,25-2.49,31.42,9.31,63.87,7.94,94.93-6.42,36.15-16.71,56.8,7.4,86.14,10.93,20.25,2.43,44.23-20.88,71.3-16.93,31.53,4.61,43.78,27.88,94,1.45,15.67-8.25,53.34,15.92,78.94,15.92,48.11,0,36.31-31.45,100.93-5.3C598.59,47.46,638.08-9.25,661.17,9.78v92.71Z"/><path class="cls-3" d="M0,108.47V57.23c46.05-6.43,53.4-51.74,103.74-24C150.45,59,176,17.18,245.6,40.53,276.57,50.92,298.54,1,348.3,28.8c66,36.9,77.51-42.34,122.43-2.22,23.31,20.8,39.33,18.84,65,.66,14-9.87,33.41-6.68,48.64.81,26.67,13.11,34.75-24.62,75.73,9.33.24.2.59.45,1,.75v70.34Z"/><path class="cls-4" d="M0,108.47V64.58c8.45-4.42,24-16.8,72-2.12C97.91,70.37,120.76,43.6,147,53.8c8.57,3.34,40.9,11.43,54.63,7C270.22,38.43,273.41,71.62,312,53.92,364.7,29.77,369.6,79.51,439.4,50.38c27.83-11.61,56.84,7.45,84.77,8.26,41.52,1.2,50.71-26,80-11.19,10.76,5.44,35.1,9.12,48.07,1.47a36.7,36.7,0,0,1,8.92-3.64v63.19Z"/></g></g></svg>