<svg xmlns="http://www.w3.org/2000/svg" viewBox="0 0 660.35 111.9"><defs><style>.cls-1{fill:#009fd7;}.cls-1,.cls-2,.cls-3,.cls-4{fill-rule:evenodd;}.cls-2{fill:#00adee;}.cls-3{fill:#21b9ec;}.cls-4{fill:#44c7f4;}</style></defs><title>Recurso 2</title><g id="Capa_2" data-name="Capa 2"><g id="OBJECTS"><path class="cls-1" d="M651.41,69V17.87c-88.71-41.85-98.84,21-160.27-5.46-89.21-38.4-79.41,41.18-174-4.86-61-29.68-67.34,40.33-162.91,3.07-47.61-18.55-54.38,31-127.19-2.84A39.54,39.54,0,0,0,0,5V69Z"/><path class="cls-2" d="M0,77.55V26.41c88.71-41.84,98.84,21,160.27-5.46,89.21-38.4,79.41,41.18,174-4.86,61-29.68,67.34,40.33,162.91,3.08C544.77.61,551.54,50.11,624.35,16.32c14.62-6.79,26.45-3.73,36,.17V77.55Z"/><path class="cls-3" d="M660.35,34.27c-86.58-39.68-97.08,21.8-158-4.41C413.16-8.54,423,71,328.39,25c-61-29.68-67.33,40.33-162.91,3.08C117.87,9.52,111.1,59,38.3,25.23,22.48,17.89,9.93,22.06,0,26.37V86.46H660.35Z"/><path class="cls-4" d="M0,58.58C84.3,21.2,95.17,81.26,155.48,55.3c89.21-38.39,79.41,41.18,174-4.86,61-29.68,67.34,40.33,162.91,3.08C540,35,546.75,84.47,619.56,50.67c17.17-8,30.49-2.36,40.79,2.24v59H0Z"/></g></g></svg>