<svg xmlns="http://www.w3.org/2000/svg" viewBox="0 0 661.79 100.61"><defs><style>.cls-1{fill:#009fd7;}.cls-1,.cls-2,.cls-3,.cls-4{fill-rule:evenodd;}.cls-2{fill:#00adee;}.cls-3{fill:#21b9ec;}.cls-4{fill:#44c7f4;}</style></defs><title>Recurso 1</title><g id="Capa_2" data-name="Capa 2"><g id="OBJECTS"><path class="cls-1" d="M0,18.54A100,100,0,0,0,16.44,5c20.14,40.28,76,35.55,105.06,5,36,29,83.26,20.75,118.85-4.31,0,0,5.75,11.51,42.45,18S349.72,2.88,349.72,2.88s18.71,15.83,54,20.87,75.55-23,75.55-23,7.2,23,46,23S589,0,589,0c-1.65,20.37,41.27,44.17,72.82,28.51v51L0,77.47Z"/><path class="cls-2" d="M0,34.71c12.52-6.12,21-12,30.11-21.15,20.14,40.28,76,35.55,105.05,5,36,29,83.27,20.74,118.85-4.32,0,0,5.76,11.51,42.46,18S363.39,11.4,363.39,11.4s18.7,15.83,54,20.87,75.56-23,75.56-23,7.19,23,46.05,23S602.64,8.52,602.64,8.52c-1.43,17.54,30.2,37.62,59.15,32.87V88L0,86Z"/><path class="cls-3" d="M0,29.69l1.33-1.12c20.14,34.5,76,30.45,105.05,4.32,36,24.83,83.27,17.76,118.85-3.7,0,0,5.76,9.86,42.45,15.4S334.6,26.72,334.6,26.72s18.71,13.56,54,17.87,75.55-19.72,75.55-19.72,7.2,19.72,46.05,19.72,63.69-20.33,63.69-20.33C572.09,42.9,621.24,64.9,653,45.42V92.34L0,90.64Z"/><path class="cls-4" d="M0,58.18c17.12-6.5,27.11-11.92,38-21.26,20.14,34.49,76,30.45,105.06,4.31,36,24.83,83.26,17.77,118.85-3.69,0,0,5.75,9.86,42.45,15.4S371.3,35.07,371.3,35.07s18.71,13.56,54,17.87,75.56-19.72,75.56-19.72S508,52.94,546.87,52.94s63.68-20.33,63.68-20.33c-1.3,13.65,24.74,29.11,51.24,28.74v39.26L0,98.89Z"/></g></g></svg>